<svg xmlns="http://www.w3.org/2000/svg" xmlns:xlink="http://www.w3.org/1999/xlink" width="149.823" height="262.368" viewBox="0 0 149.823 262.368">
  <defs>
    <linearGradient id="linear-gradient" x1="0.472" y1="0.341" x2="0.652" y2="1.503" gradientUnits="objectBoundingBox">
      <stop offset="0" stop-color="#0bf7d0"/>
      <stop offset="1" stop-color="#067c68"/>
    </linearGradient>
  </defs>
  <g id="Groupe_4" data-name="Groupe 4" transform="translate(0 0.271)">
    <path id="Tracé_31" data-name="Tracé 31" d="M431.12,281.985s-12.48-6.893-17.446-5.736-5.041,11.458,5.988,22.942,13.08,20.046,8.272,22.322-37.039.58-39.359,6.622-4.582,17.524,15.657,20.572,29.511.192,27.833,5.753-32.144,5.853-31.656,14.1,40.98,12.63,48.342,20.147-8.733,14.546-25.328,16.045-17.143,20.134,7.637,26.408,30.183,11.721,25.684,15.146-16.213,10.262,8.984,22.467,32.279,41.341,32.279,41.341,7.76-35.336,16.177-52.621,10.13-28.335,2.738-32.017,21.66-15.666,19.927-25.793-36.665-14.546-29.419-26.1,11.556-19.359-6.346-30.072,3.15-4.787-2.232-15.658-28.005-14.407-35.8-21.429S431.12,281.985,431.12,281.985Z" transform="translate(-387.101 -276.118)" fill="url(#linear-gradient)"/>
    <path id="Tracé_32" data-name="Tracé 32" d="M510.234,425.473c-7.393-3.682,21.66-15.666,19.927-25.793s-36.665-14.546-29.419-26.1,11.556-19.359-6.346-30.072,3.15-4.787-2.232-15.658-28.005-14.407-35.8-21.429-31.93-24.438-31.93-24.438-12.48-6.893-17.446-5.736c40.416,29.972,62.231,76.235,77.074,120.53,9.332,27.851,9.466,76.57,8.278,108.909,2.369-10.021,8.562-34.651,15.159-48.2C515.912,440.206,517.625,429.155,510.234,425.473Z" transform="translate(-380.412 -276.118)" fill="#03ddd4"/>
    <path id="Tracé_33" data-name="Tracé 33" d="M490.474,538.139s8.429-97.1-6.415-141.393-36.658-90.558-77.074-120.53" transform="translate(-380.412 -276.085)" fill="none" stroke="#07b296" stroke-miterlimit="10" stroke-width="1"/>
  </g>
</svg>
