<?xml version="1.0" encoding="utf-8"?>
<!-- Generator: Adobe Illustrator 21.1.0, SVG Export Plug-In . SVG Version: 6.00 Build 0)  -->
<svg version="1.1" id="Calque_1" xmlns="http://www.w3.org/2000/svg" xmlns:xlink="http://www.w3.org/1999/xlink" x="0px" y="0px"
	 viewBox="0 0 1139.8 498" style="enable-background:new 0 0 1139.8 498;" xml:space="preserve">
<style type="text/css">
	.st0{fill:#FFFFFF;}
</style>
<g>
	<g>
		<path class="st0" d="M341.4,113.6c8.9,5.2,14.8,11.7,22.4,17.4c2.7,2,6.7,4.1,8.9,6.4c-0.9,1.9-0.7,2.7,0.6,2.5
			c0.8,0,1.5,0.1,2.3,0.3c0.9,1,0.9,2.4,2.7,4.2c1.8,1.8,3.3,1.6,4.1,3.9c3.8,3.9,3.7,19.1,3.4,28c-0.2,8,0.6,16.6-9.3,16.2
			c-8.9-0.3-7.9-5.5-7.7-13.5c0.3-8.5,3.7-27.1-5.3-30.1c-6.5-2.2-17.3-0.1-24.1-0.2c-7.2,0-8.3-0.6-11.4,6c-3.6,7.8-1,20.8-0.6,29
			c0.4,8,0.6,16.8,5,23.8c4.2,6.7,10.3,13.2,15.4,17.1c8.4,6.5,18.2,7.3,29.9,7.2c12.3-0.1,15.5-1.4,24.8-5.2
			c7.2-3,16.7-11.5,20.8-19.6c5.1-10.1,5.6-20.9,5.3-33.2c-0.5-15,3.1-32.1-4.7-43c-5.7-7.9-13-11.9-19.2-16.6
			c-12.1-9-22-16.9-34-25c-8.5-5.7-9.9-11.8-9.7-21.9c0.1-6-1.9-15.1,0.5-20.8c2.4-5.8,9.7-9.3,14-3.3c3.7,5.1-1.4,13.5-0.8,19.7
			c0.6,6.7,2,13.6,7.9,17.5c6.8,4.4,27.8,5.6,33.6-0.6c5.1-5.5,2.3-20.7,2-27.7c-0.2-7.7-0.5-16.5-2.8-24c-1-3.3-2.1-6-3.9-9.1
			c-2-3.5-6.4-5.3-7.8-10.4c-12.6-3.1-20.5-11.8-35-8c-8,2.1-19.6,5.1-26.2,10.7c-17.1,14.7-23.1,26.8-24.9,48.7
			C316,80.7,321.5,101.8,341.4,113.6z M1003.4,120.6c-3.9-3.3-7.6-6.7-12.1-9.7c-3.3-2.2-7.6-4.8-10.2-7.1
			c-9.8-8.7-23.2-14.9-27.9-26.4c-2.6-6.4-2.3-13.1-2.4-19.8c-0.2-11.1-0.3-18.6,13-16.2c0.8,8.7-1.5,31.7,6.4,37.8
			c5.7,4.4,18.1,1.2,25.3,2c5.2,0.6,8.3,2.7,12.1-1.6c5.3-6-0.1-17-1-23.9c-1.1-9.3-0.8-17.8-2.9-26.9c-0.9-4-1.5-7.9-3.6-10.7
			c-2.7-3.6-7.9-7-10-8.8c-9.5-8.5-26.6-11.1-41.5-6.1c-24.4,8.3-40.3,25.1-41.6,51.2c-0.6,12.4,3.1,27.4,6.8,36.6
			c3.7,9.1,14.7,17.5,23.7,25.4c6.3,5.6,12.1,11.7,18.5,17.1c4.7,3.9,10.3,7,14.4,13c6.5,9.3,5.3,25.8,3.8,36.8
			c-0.9,6.1-7.1,16.2-14,7.9c-5.3-6.4-0.6-24.5-1.5-32.3c-0.7-5.7-1.3-8.4-7.6-10.3c-5.4-1.6-20.8-1.1-26.5,0.4
			c-10.1,2.6-7.9,11.3-7.6,19.8c0.7,18.9-0.4,33.9,12,47.2c11.5,12.3,21.5,17,38.8,16.5c16.6-0.5,27.8-4.3,39.2-16.5
			c11.8-12.5,11.2-28.6,11.5-46c0.2-12.5,0.3-25.1-4.1-36.8C1012.1,126.8,1008.2,124.5,1003.4,120.6z M206.4,46.6
			c-0.1-4.4-2.3-9.8-3.7-15.3c-1.6-6.3-7.1-8.4-9.1-15.9c-4.6-1.3-7.1-4.9-11-6.5c-2.6-1-7.2-1.8-10.7-2.9
			c-10-3.2-21.5-1.9-33.4-2.3c-10.6-0.4-25.5-3.3-28.4,10c-2.8,12.9-4.1,27.5-6,40.6c-1.1,7.7-3.1,16.1-3.6,25.5
			c-0.7,11.8,2.4,22.7,3.5,34.2c0.7,7.6,2.1,10.8,3.3,19.1c1.2,8.9,3.5,17.2,3.5,26.5c-0.1,15.5-0.2,31-0.2,46.5
			c0,7.2-2.9,17,3.9,21.5c8.7,5.7,29.6,1.7,39.5,1.7c11,0,16.4-1.5,23.6-3.9c7-2.3,11.9-3.5,17.7-8.6c9.8-8.7,14.8-18,17.3-31
			c5.1-27-1.4-56.7-6.1-81.2C203.3,87.3,206.7,66.5,206.4,46.6z M166.3,191.5c-16.2,9.3-12.8-16.7-12.8-25.2
			c0-13.2-0.7-26.7-3.5-39.7c-5.2-24.2-11.7-59.9-0.4-85.3c21.9-0.3,12.7,16.4,11.1,32.1c-1.3,13,1.5,28.2,3.8,41.1
			c1.7,9.8,5.3,19.9,5.9,32c0.5,10.4-0.2,20.9,0.2,31.4C170.8,184.6,172.2,188.2,166.3,191.5z M306,39c-0.2,0.4-0.5,0.8-0.8,1.1
			C306.1,39.3,306.2,39,306,39z M315.3,222.9c2.4-4.7,1.5-25.4-1.7-29.4c-9.8-12-38.2,9.7-39.1-14.6c-0.4-9.8,0.9-19.4,0.1-29.4
			c-0.8-8.9-1.7-14.8,8-16.1c6.4-0.9,17.3,2.3,20.6-4.6c1.9-4.1-0.8-14-2.4-17.1c-8.4-16.4-29.7,1.4-34.2-17.6
			c-2.5-10.5-6.8-46.8,4.2-52.6c7.7-4,21.2,2.4,29.7,0.2c0.3-0.1,4.9-2.7,5.6-2.6c0.5-0.8,0.9-1.6,1.5-2.2c2.3-1.8,7.7-22.9,4.7-28
			C306-1.7,280,3.2,269.8,3.5c-10.7,0.3-32.4-3.8-39.5,4c-2.7,3-2.6,12.4-3.2,15.7c-1.7,9.5-3.4,18.9-5,28.4
			c-4.7,26.6,0.6,51.8,5,75.2c5.6,29.3,2.8,66.6,2.8,98.5c7.5,2.5,9.8,4.1,20.4,3.9c12.8-0.2,25.7,0,38.5,0
			C297.6,229.4,310.5,232.2,315.3,222.9z M497.1,207.6c0,11-1.8,18.9,10.5,21.7c6.5,1.5,22.8,2.3,28.7-0.6c12.1-6,6.2-39.7,6.2-52.1
			c0-10.8-3.3-27.1,0.5-37.3c3.5-9.5,11-4.8,19.4-5.4c16.6-1.3,13.4-26.8-0.7-30.5c-5.6-1.5-12.7,2.3-18.2,0
			c-5.3-2.3-5-6.6-6.1-12.2c-2.4-11.4-4.9-22.9-5.4-34.6c-0.6-13.2,1.3-15.9,14.1-16.4c9.8-0.4,18.3-0.6,27.4-2.7
			c0.8-9.7,9.8-26.5-1.4-32.8C567.3,2,556.4,3.4,551,3.4c-8.5-0.1-17.1,0.1-25.6,0.2c-10.5,0.1-25.6-3-31.9,7.3
			c-6,9.8-5.5,31.6-5.6,43c-0.2,24.5,9.6,47.9,9.7,72.5C497.7,153.4,497.1,180.5,497.1,207.6z M643.2,132.9
			c-0.9-10-2.8-19.7-3.5-29.6c-0.4-6.7-2.8-12-4-18.7c-3.9-21.7-1.4-41.9,0.5-63.5c2-22.5-17.7-17.5-34.2-17.3c0,0.8-5.8,5.6-7,7.9
			c-3.6,7.1-4,18.2-4.9,26.3c-2.3,20.8,2.1,43.3,6.1,63.7c7.3,36.9-0.3,75.4,2.7,113c1.3,16.6,19.7,18.8,33.7,14.6
			c14.5-4.4,12.1-21,11.4-33.1C642.8,175,645.1,153.8,643.2,132.9z M663,157.6c0,13.1,0.2,26.3-0.3,39.5c-0.3,7.4-3.2,23.1,1.9,29
			c5.4,6.2,17.4,3.4,24.5,3.3c12.5-0.2,25.1,0,37.6,0c7.3,0,14.9,2.2,19.5-3.1c4.5-5.2,2.4-14.3,2.4-21.2c0-10.9-0.3-16.5-12.5-16.5
			c-9.2,0-18.5,0.6-27.7,0.6c-5.3-28.3,1.5-57.2-3.9-85.7c-5.1-26.6-8.6-51.7-4.5-78.6c1.4-9.4,4.4-17.8-7.5-20.9
			C684.9,2,671,1.4,664,5.4c-7.3,4.1-8,13.8-8.9,21.2c-1.1,8.2-3.9,16.6-3.4,24.9c0.9,16.9,6.7,36.1,8.8,49.5
			C663.3,119.7,663,138.5,663,157.6z M846.9,225.2c6.2-7.9,2.6-17.7,3.7-26.5c0.7-5.5,2.7-9.4,3.8-14.7c1.5-7.5,1-15.1,2.5-22.7
			c2.2-10.6,2.3-22.6,3-33.4c0.2-2.6-1-14,1.5-15.3c1.2-0.6,2.9,44.6,2.8,48.5c-0.1,10.5-0.2,21-0.2,31.5c0,8.1-2.1,18.2,0,26.1
			c1.3,5.1,4,8.8,9.1,10.5c3.3,1.1,17.5,1.7,21.2,0.5c11.9-3.8,7.4-24.6,7.6-34c0.4-21.2,1-42.5-0.2-63.7c-1-17.3-4.7-34-6.6-50.9
			c-1.4-13.1-5.5-23.6-4-37c1-8.9,2.5-17.8,3.9-26.7c0.6-3.4,1.9-6.4,0.8-9.7c-0.5-1.5-1.9,1.6-1.9-2.8c-12.3-1.2-28.6-3.8-40.8-1.3
			c-9.1,1.9-13.1,8.9-15,16.3c-3.9,15.1-6.4,31.5-5.1,48.5c0.5,6.7,0.9,11.5,1.1,18.1c0.4,11.1,3,19,2.5,30.3
			c-0.3,5.5-1.9,12-2.2,17.2c-0.4,6.8,4.2,18.6-0.7,24.5c-6,7.3-5-8.1-5.3-11c-0.9-8.1-0.2-18.3-2.6-27.2
			c-4-14.9-9.4-33.8-12.4-51.8c-1.3-7.9-1.2-16-1.6-23.1c-0.1-2.1-2.1-2.1-2.2-3c-0.2-2.5,1.2-6.3,1.3-9.1c0-1.4-0.8-4.5-0.6-6.8
			c0.7-7.7,5.9-16.8-2.1-21.8c-4.6-2.9-15.8-1.2-22.5-1.2c-11.7,0-22.6-3.2-28.4,8.7c-4.9,10.2-4.8,25.2-4.9,36.2
			c-0.1,21.5,5.9,41.7,8.5,61.2c3.1,23.6,0.8,48.7,0.8,72.5c0,11.2-3.4,28.3,0,39c2.2,7.1,6.8,7.6,13.6,8.1
			c7.2,0.5,18.2,2.6,22.3-4.6c3.8-6.9,2.2-20.6,2.3-28.2c0.1-23,1.9-49.5-1.3-71.1c-0.3-1.9-3-16,2.2-9.5c5,6.1,3.9,18.1,4.2,25.3
			c0.8,16.6,5.6,30.5,6.4,47.8c0.6,11.7-2,36,11.4,40.4C829.4,231.6,842.3,231.1,846.9,225.2z M830.3,163.2c1.3,1.1,1.8,2.2,2.6,3.9
			C830.7,165.6,831.1,166.3,830.3,163.2z M110.1,409.3c-1.4-6.8-2.1-12.4-3.3-17.9c-4.6-22.1,0.4-50.5-2.6-75.1
			c-0.5-4-2.9-9.6-5.2-15c-2.4-5.6-14.3-13.5-14.3-18.8c-6-1.5-10.3-6.1-16.4-7.8c-3.9-1.1-8.4-2.3-11-2.9
			c-10.6-2.2-21,0.6-30.9,2.6c-14.5,2.9-24.9-0.9-26,17.2c-1,16.2-0.1,32.5-0.1,48.7c0,27.9,4.8,53.4,8.7,80.7
			c2,14.1,2.1,28.3,0.2,42.4c-0.9,6.7-1.6,13.6-2.6,20.3c-0.4,2.8-2.8,5.1-1.6,8.3c3.8,9.6,29.8,4.4,38,4.4c8.8,0,17.2-0.1,23.8-1.8
			c3.9-1,9.4-2.5,14.3-4.7c4.4-2,8.8-6.9,13.1-10.3c8.6-6.7,16.6-18.4,19.3-27.5c2.1-7.1-0.5-14.5-1.3-21.6
			C111.5,423.4,111.5,416.4,110.1,409.3z M52.3,460.1c0-19.6-1.8-38.4-3.7-57.7c-1.3-13.5-4.7-21.5-4.2-34.9
			c0.6-16.4-3.5-36.1-0.3-52.1c1.3-6.7,4.2-9.2,11.3-5.9c6.4,3,6.2,6.9,6.3,13.1c0.2,26.9-0.6,51.9,2.8,76.7
			C66.9,417.6,82.8,461.3,52.3,460.1z M120.5,275.4c0.2-0.2,0.3-0.5,0.5-0.7C120.8,275,120.7,275.2,120.5,275.4z M172.9,457.6
			c0.1-18.3-4.6-36.7-3.4-54.8c0.2-2.5,22,1.7,25.8-3.7c5.4-7.9-1-27.4-10.2-28.6c-5.2-0.7-12.3,2.8-17.2,0.4c-6.4-3.1-4-10-4-16.5
			c0-8.6-5.4-39.7,1.6-45.7c2.6-2.2,16,0.4,19.3,0.4c6.5,0,14.6,1.2,18.6-4.5c3.4-4.9,2.5-14.5,1.9-20.4
			c-0.8-8.4-3.2-10.7-11.5-12.1c-17.9-3.1-38.5-0.2-56.6-0.3c-4.5,0-10.1,0.5-12.8,1.7c-0.3,0.1-5,3.9-3.8,2
			c-7,9.9-2.1,31.1-2.1,42.4c0,22-0.9,44.3,2.3,66.1c2.1,14.3,6.7,29.2,8.3,43.1c1.9,16.7-1.1,34.9-4.3,51.1
			c-2.9,14.6-0.6,18.3,13.8,18.3h30.1c8.5,0,21.9,2.4,30,0.1c10.3-3,11.1-13.4,12.8-25.5C214,452,186,459.8,172.9,457.6z
			 M277.4,272.5c-9.1-0.7-5.4,62.4-5.2,71c0.4,27.7,7,58.5,9.8,82c2.1,17.7-0.8,36.7-2.7,53.7c-0.8,6.8-5,14.3,1.9,17.4
			c5.7,2.5,14.2,0.1,20.1,0.1c2.7,0,5.9,0.7,8.6,0.3c2.6-0.4,5.6-3,8.1-3c4.6-19.4,11.2-42.4,7.1-62.2c-0.7-3.2-5.3-16.6-2.9-19.4
			c1.8-2.1,14.4-2,16.7-2.5c6.2-1.3,20.2-6,25.7-13c1.7-2.1,3.7-7.2,5-10.5c1.7-4.4,4.3-10.5,4.9-12.9c5.3-23.2,5.9-61.4-8.2-79.9
			C344.1,263.9,309.6,274.9,277.4,272.5z M331.1,373.3c-3.7,1.1-11.3,3.4-14.6,0.6c-3.2-2.6-1.1-8.9-0.9-12.6
			c0.6-14.1-3.8-33.2,0.1-46.7c1.8-6,5.2-8.7,12.3-4.7c5.1,2.9,4.4,5.4,4.6,11C333,338.2,334.2,356.1,331.1,373.3z M449.4,457
			c-10.3-2.7-4.3-10.2-5.3-19.1c-1.2-11.6-4-25.9-6.2-38.5c-3.8-22.6-3.1-45.2-3.1-68.4c0-13.9,0.2-27.9,0.1-41.8
			c-0.1-9.5-1.5-15.8-11.7-17c-8-1-26.5-2.8-32.3,3.6c-5.4,6-2.7,19.7-2.7,27.2c-0.1,25.9-0.2,51.9,2.3,77.6
			c2.5,25.3,10.1,47.9,7.9,73.6c-0.8,9.5-1.8,19.9-3.4,29.1c-0.4,2.3-3,3.6-2.8,6.6c0.1,0.7,3.5,5.3,3.9,6.5h48.3
			c8.4,0,25.8,3.6,31.9-3.4c3.2-3.7,3-8.9,4.1-13.5c0.9-3.7,6-15.5,0.3-21.1C475.3,453.3,456.6,458.9,449.4,457z M546.9,458.4
			c-5.9-3.7-2.9-21.4-4.4-27.9c-2.1-8.9-2.7-19.3-3.9-28.7c6.2,0,17.5,2.5,23.3,0c7.9-3.4,3.2-8.3,2.6-14.3
			c-0.6-5.7,1.9-11.8-3.9-15.7c-5.1-3.4-14.2-0.4-20.2-1.2c-7.5-0.9-7.2-1.1-7.3-8.8c-0.1-7.9,0.4-15.9,0.3-23.9
			c0-6.6-2.9-20,0.4-25.6c3.1-5.2,6.6-4.1,13-4c12.6,0.1,25.9,4.8,26.9-11.2c0.5-7.7,2.7-19.1-4.7-23.8c-7.4-4.7-28.6-1.3-39.5-1.3
			c-10.3,0-27.2-3-36,1.9c-11.3,6.3-5.5,32-5.5,43.8c0,17.7-1.9,36.3,0,53.9c1.6,15.1,5.4,32.1,7.8,46.9c3.5,21.7,0.3,43.6-1.7,62.9
			c-0.6,5.4-4.1,10.7,2.7,14.6c4.2,2.5,14.7,0.3,19.2,0.3c16.1,0,32.1,0,48.2,0c5.5,0,9.7,0.6,12.5-5c2.9-5.7,3.9-16.1,3.9-22.3
			C580.6,449,558.3,465.6,546.9,458.4z M633.2,358v-40.3c0-11.4,2.6-26.4,0-37.5c-1.4-6.1-4.1-7.3-10.6-8.1
			c-7-0.8-21.9-2.5-27.9,1.4c-7.9,5.2-4.3,24-4.3,31.9v38.4c0,14.7,1.6,30.9,2.8,43.3c2.4,24.7,10.1,47.1,6.5,74.8
			c-0.9,6.7-1.6,9.9-2.5,16.3c-0.6,4.4-4.4,9-1.2,14.1c4.8,7.7,18.2,3.9,26,4c3.4,0,7.4,0.6,10.6-0.4c1.5-0.5-0.2-2.2,3.3-2.2
			c5.4-27,10.6-51.7,4.6-79.4C636,394.2,633.2,379.5,633.2,358z M761.4,386.8c-2.8-21.5-1.1-44-1.1-65.7c0-11.2,4.3-39.2-2.6-45.5
			c-4.4-4-6.2-3.5-12.6-3.5c-5.1,0.1-12.8-1.4-17.5,0.8c-8.4,4.1-5,17.6-5,25.2c0,31.8,0,63.1,2.6,94.6h-2.6
			c-3.8-16.5-8.9-29.2-11.5-43.8c-1.4-7.9-3.7-15.4-4.9-21.2c-0.5-2.2-1.4-8.6-1.8-10.9c-0.2-1.3-2.2-7.7-2.3-8.4
			c-0.5-7.9-2.2-9.5-3.2-17.7c-0.9-7.9-3.4-16.9-11.5-18.6c-7.2-1.5-23.7-2.5-29.1,2.5c-6.9,6.3-3.2,24.1-3.2,32.6
			c0,21.3-0.8,45.9,1.5,65c0.9,7.6,0.8,15.5,2,23.2c1.8,11.1,5.6,21.6,6.5,33c1.5,20.1-3.6,38.2-4.5,57.8
			c-0.6,11.8,4.8,10.4,14.4,10.3c3.5-0.1,7.6,0.7,11.1,0.2c4.7-0.7,3.4-0.6,5.9-2.7c8-7,7.7-25,9.3-36.3c3.2-22.8-3.2-43.8-6.8-66.1
			c-0.4-2.5-2.7-6.7,0-8.5c3.2-2.2,3.8,4.4,4.7,6.6c2,4.9,3,8.5,5.7,13.4c1.3,2.4,1.9,3.5,3.2,6.4c0.6,1.3,0.1,2.9,0.4,3.7
			c0.1,0.4,1.5,0.3,1.7,0.7c0.9,2.3,3.5,7.5,4.6,10.1c0.6,1.5,1.1,4.7,1.4,5.9c0.5,2.7,1.5,5.4,2.1,8.2c1.1,5.2,1.9,10.5,2.9,15.7
			c1.3,6.5,1.3,11.9,1.9,17.4c0.5,4.9-1,13.1,1.1,18.6c4.4,11.3,34.6,9.5,38.6,2.7c6.5-10.8,3.9-26.5,6.5-36.5
			c2.9-11.3,0.1-24.6-1.3-34.1C766.2,409.2,762.8,397.7,761.4,386.8z M944,435.5c-1.9-5.4-2.1-11.8-3.5-15.6
			c-0.9-2.5-2.6-8.7-3.6-11.3c-2.1-5.8-6.9-14.7-8.1-18.5c-1-3.2-1.9-6.8-2.6-9.1c-0.9-2.7-2.3-7.8-2.6-9.1c-0.7-3.8,0.5-7.8,0-11.7
			c0,0.3-2.5-7.9-2.6-9.7c-0.4-6.4-1.7-7.8-2.6-11c-1.4-4.9,0-10.6-1.1-15.6c-0.9-3.9-1.2-1-2.2-6.2c-0.9-4.7-1.5-11.9-2.2-14.9
			c-0.6-3-1.7-7.1-2-11.6c-0.2-2.8,0.7-7.2,0-9.7c-0.8-2.9-2.8-1.5-4.1-6.9c-10.3-2.8-32.2-7.4-40.9,0.6c-2.8,2.6-3.7,5.2-4.5,9.4
			c-1.2,6.1-2.4,13.6-3.2,17.3c-4.8,22.4-6.9,47-9.7,68.8c-2.7,21.1,2.6,50.4-2,72.3c-2.4,11.4-5.5,22.3-9.2,32.6
			c-1.5,4.3-7.2,13.4-4.5,18c3,5.2,11.9,2.8,16.9,2.8c12.6-0.2,21,2.7,26.6-8.8c4-8.3,2.4-21.7,13-25.3c2.3-0.8,15.5-1.2,17.5,1.1
			c2.9,3.4-0.7,14.6-1.3,18.8c-2.8,19,15.2,14.7,29.3,14.4c12.2-0.2,12.7-5.6,13-16.7c0.2-6.7,0.3-14.4-0.1-20.4
			C946.8,449.7,946.4,442.3,944,435.5z M888.5,430c-2.9-2.4-1.3-6.3-1.8-9.8c-1-8.1-1.2-13.8-1.9-22.2c-0.8-9.9-3-15.7-2.7-26.1
			c0.2-5,2.1-16.6,2.6-24.6c3.5,0,6.7,30.4,8.2,36.5c3.4,14.4,11.4,31.5,11.3,46.5C900.6,430.3,891.5,432.6,888.5,430z M1004,363.3
			v-41.6c0-12.5,1.8-26.5,0-38.8c-1.1-7.5-3.7-10.9-11.5-11.4c-6.4-0.4-19-1.1-24.7,0.9c-7,2.5-7.7,8-7.8,14.6c-0.3,13,0,26,0,39.1
			c0,18.8-0.3,37,2.3,53.8c3.5,22,11,44.5,8.2,69.3c-0.8,7.4-2.2,16.6-3.2,21.2c-1,4.3-3.4,16-2.6,20.3c1.6,8,8.3,6.1,14.7,5.8
			c4.4-0.2,22,2.7,22-2.6c8-2,8.5-18.5,9.6-25.3c1.7-10.8,2.3-18.9,2.1-30.5C1012.5,412.7,1004,388.6,1004,363.3z M1138.9,423.8
			c-2.3,0.8-3.3,0.1-3-2.2l-1.7-3.9c-2-3.9-2.5-8.2-4.8-12.2c-3.7-6.1-12.7-10.1-11.6-17.4c0.9-5.6,5.9-13,6.9-17.4
			c0.6-2.7,1.8-8,2.6-11.7c1.2-5.6,1.9-13.6,1.6-21.1c-0.6-12.8-0.8-20.4-3.8-30.8c-1.7-5.9-7.1-11.1-9.4-18.1
			c-5-1.4-8.5-6.8-12.3-9.1c-3.3-2.1-8.3-4.7-12.4-5.9c-9.9-3-21.2-1.9-31.5-1.8c-7.6,0.1-20.8-2.9-28,0c-12.9,5.2-6.7,37-6.7,47.7
			c0,24.2,0.4,48.6,4.1,72.5c4.3,27.5,8.2,52.4,2.5,79.7c-1.3,6.2-4.6,14.4-2.1,19.6c3.3,7,8,4.8,15.7,4.8c11.5,0,23.4,2,26.6-9.1
			c1.7-5.8,0.5-9.5,1.9-14.8c1.3-4.9,2.8-13.1,3.3-16.3c2-13.2,0.6-25.5-0.7-38.8c-0.8-7.6,0.1-12.7,9.5-9.4
			c8.5,2.9,8.3,9.8,8.7,17.3c1,16.4-0.3,34.2-3.7,48.4c-1.2,4.8-4.5,18.1-0.5,22.2c3.1,3.2,19.4,0.5,23.7,0.5
			c9.8,0,17.2,2.2,18.7-7.8c0.7-5,0.4-10.1,1.3-13.6c1.1-4.2,0.7-12,2.4-17.5c1.4-4.3,2-0.7,3.1-5c0.4-1.4-0.3-3.8-0.3-5.4
			C1138.9,440.4,1140.9,430.4,1138.9,423.8z M1082.6,370.3c-2.5,2.2-8.6,3-11.3,1.5c-6-3.2-3.9-10.2-3.7-15.8
			c0.5-14.4-3.8-33.7,1.3-47.5c16.9,0,17.6,7.2,17.5,23C1086.3,340.4,1090.3,363.6,1082.6,370.3z"/>
	</g>
</g>
</svg>
